<?xml version="1.0" encoding="utf-8"?>
<!-- Generator: Adobe Illustrator 19.1.0, SVG Export Plug-In . SVG Version: 6.00 Build 0)  -->
<svg version="1.1" id="Layer_1" xmlns="http://www.w3.org/2000/svg" xmlns:xlink="http://www.w3.org/1999/xlink" x="0px" y="0px"
	 viewBox="0 0 206.9 18.7" style="enable-background:new 0 0 206.9 18.7;" xml:space="preserve">
<g>
	<g>
		<g>
			<g>
				<g>
					<path d="M9,11c-0.3,0-0.1,0.4-0.1,0.5C9.3,11.3,9,10.9,9,11z"/>
					<polygon points="13.2,9.1 13.1,9.3 13.7,8.7 					"/>
					<path d="M17.3,8.4c-0.5-0.6-1.5,0.3-2.3,0.2l-0.1-0.1l-0.2,0.6C15.5,8.9,16.6,8.3,17.3,8.4z"/>
					<path d="M19.7,9.6c-0.2-0.3,0.4-0.3-0.5,0c0.1,0,0.1,0,0.1,0.1C19.4,9.7,19.5,9.6,19.7,9.6z"/>
					<path d="M19.3,9.7C18.9,9.7,19.6,9.9,19.3,9.7L19.3,9.7z"/>
					<path d="M21.3,9.3l-0.5,0.3c0.1,0.1,0.7,0.1,0.5,0.3C21.8,9.6,21.7,9.5,21.3,9.3z"/>
					<path d="M21.8,8.7l-0.3,0.1C21.5,8.9,21.6,8.9,21.8,8.7z"/>
					<path d="M20.9,9.1l0.6-0.3c-0.1-0.1-0.1-0.3-0.3,0.1C21.2,8.7,21.1,8.9,20.9,9.1z"/>
					<path d="M20.5,9c-0.3-0.1-0.8-0.2-0.2-0.5C19.2,8.8,19.4,9.3,20.5,9z"/>
					<path d="M17.4,7.6l-0.5-0.1l-0.3,0.3C16.8,7.6,17.5,7.9,17.4,7.6z"/>
					<path d="M24.9,9.3c0-0.2-0.2-0.4-0.3-0.6l-0.4,0.2C24.4,9,24.8,9,24.9,9.3z"/>
					<path d="M24.6,8.7l0.6-0.3C24.7,8.4,24.6,8.5,24.6,8.7z"/>
					<polygon points="21.8,7.9 20.8,8.5 22,7.9 					"/>
					<polygon points="27.3,9.1 27,9.5 27.6,8.9 					"/>
					<path d="M28.9,8.9c-0.3,0.3,0.4,0.5,0.1,0.7c0.4-0.1,0.8-0.4,1.1-0.6C29.8,9.1,29.5,9.1,28.9,8.9z"/>
					<path d="M30.7,8.6c-0.2,0.1-0.4,0.2-0.6,0.4C30.4,8.9,30.6,8.8,30.7,8.6z"/>
					<path d="M26.3,8.4c0.1,0.1,0.2,0.3,0.5,0.4l-0.3-0.4C26.5,8.4,26.4,8.4,26.3,8.4z"/>
					<path d="M26.6,8.3L26.6,8.3c0.3,0,0.5,0,0.6,0C27.1,8.3,26.9,8.3,26.6,8.3z"/>
					<path d="M26.3,8.4C26.3,8.4,26.3,8.4,26.3,8.4C26.3,8.3,26.3,8.3,26.3,8.4z"/>
					<path d="M23.5,8.1c0.4-0.3,1.1-0.6,0.3-0.9C23.6,7.5,24,7.7,23.5,8.1z"/>
					<path d="M25.9,7.9l-0.7,0c0,0.1,0.2,0.3,0,0.4L25.9,7.9z"/>
					<polygon points="26.2,7.7 25.9,7.9 26.2,7.9 					"/>
					<path d="M29.6,8.3c0.3-0.2,0.6-0.2,1-0.3C30.1,8,29.7,7.9,29.3,8C29.3,8.1,29.1,8.4,29.6,8.3z"/>
					<path d="M28.1,8.3C28.1,8.3,28.1,8.3,28.1,8.3C28.1,8.2,28.1,8.2,28.1,8.3z"/>
					<polygon points="34.1,7.9 34.1,7.8 34.1,7.9 					"/>
					<path d="M29.3,7.9c-0.3-0.1-0.5,0-0.6,0.2C28.9,8,29.1,8,29.3,7.9C29.4,7.9,29.4,7.9,29.3,7.9z"/>
					<path d="M31.7,8.4c-0.2-0.1-0.3-0.1-0.5-0.2C31.4,8.3,31.7,8.5,31.7,8.4z"/>
					<path d="M28.3,8.4C28.3,8.4,28.2,8.4,28.3,8.4C28.3,8.5,28.3,8.4,28.3,8.4z"/>
					<path d="M28.3,8.4c0.1-0.1,0.3-0.2,0.4-0.3c-0.2,0-0.3,0.1-0.5,0.2C28.2,8.3,28.2,8.3,28.3,8.4z"/>
					<path d="M35.1,5.1c0,0.4-0.8,0.8-1.5,0.4c-0.7,0.3-0.2,1.6,0.4,2.3c0-0.2,0-0.3,0.7-0.6c-0.2-0.2-1.5-0.5-1-0.8
						c0.9-0.2,0.7,0.1,1.2,0.3c-0.4-0.5,1.1-0.7,0.9-1.5l-0.8,0.3C35.1,5.4,35.4,5.2,35.1,5.1z"/>
					<path d="M32.8,7.8l-0.3,0.1c0.3,0.1,0.6,0.2,1,0.5C33.9,8.2,34,8,34.1,7.9L32.8,7.8L32.8,7.8z"/>
					<path d="M31.2,7.9c0.2-0.4,0.9-0.7,0.4-1.1c-0.8,0.1-0.6,0.4-1,0.6C31.9,7.3,30.3,7.7,31.2,7.9C31,8,30.7,8,30.5,8
						c0.2,0,0.5,0.1,0.7,0.2l0,0l0,0l0,0c-0.1-0.1-0.1-0.1,0-0.1c0,0,0,0,0,0C31.2,8,31.2,8,31.2,7.9C31.6,8,31.3,8,31.2,8.1
						c0,0,0,0,0,0.1l0,0l1.3-0.3C32.2,7.8,31.9,7.8,31.2,7.9z"/>
					<path d="M24.5,6.2C24.5,6.2,24.5,6.3,24.5,6.2C24.6,6.2,24.6,6.2,24.5,6.2z"/>
					<path d="M25,6.4c-0.1,0.1-0.2,0.2-0.5,0.2c-0.3-0.1,0-0.2,0-0.3c-0.2,0.1-0.6,0.4,0,0.5l0.1-0.1c0.5,0.1,1.3,0.6,1.2,0.6
						C25.6,7,25.4,6.8,25,6.4z"/>
					<path d="M28.2,7l1.1-0.3l-0.6-0.3l0,0.2C28.1,6.6,28.2,6.9,28.2,7z"/>
					<polygon points="34.3,8.1 34.1,8.5 34.7,7.9 					"/>
					<polygon points="35.7,8 35.6,8.4 36,8.1 					"/>
					<path d="M117.4,3.7l0.3-0.1C117.5,3.7,117.4,3.7,117.4,3.7z"/>
					<path d="M115,3.6l-0.1,0.2C115,3.7,115.1,3.6,115,3.6z"/>
					<path d="M71.1,7.7c0.5,0.4,1,0.9,0.9,0.5l-0.1-0.4C71.6,7.9,71.4,7.8,71.1,7.7z"/>
					<path d="M95.5,5.3l-0.1-0.1c-0.1,0.1-0.2,0.3-0.3,0.4C95.2,5.5,95.3,5.4,95.5,5.3z"/>
					<path d="M95.9,3.6l0.6,0.3C96.3,3.8,96.1,3.7,95.9,3.6z"/>
					<path d="M130.3,3.9l0.4-0.4C130.2,3.5,130.4,3.7,130.3,3.9z"/>
					<path d="M50.4,7.6c0.4,0.2,0.7,0.2,1,0.3C51,7.7,50.6,7.3,50.4,7.6z"/>
					<path d="M116.2,8.3c0.2-0.1,0.3-0.2,0.3-0.3C116.3,8.1,116.2,8.2,116.2,8.3z"/>
					<path d="M52.7,7.9c-0.1,0-0.1-0.1-0.2-0.1c-0.3,0.1-0.6,0.1-1,0.1C51.8,8.1,52.3,8.2,52.7,7.9z"/>
					<path d="M177.2,9C177.2,9,177.3,9,177.2,9C177.3,9,177.3,9,177.2,9z"/>
					<path d="M190,15.6c-0.1,0-0.4,0-0.6-0.1C189.5,15.5,189.7,15.6,190,15.6z"/>
					<path d="M41.5,8.1C41.2,8.1,41.4,8.1,41.5,8.1L41.5,8.1z"/>
					<path d="M40,6.4c0.1-0.1,0.1-0.1,0.1-0.2C40.1,6.3,40,6.3,40,6.4z"/>
					<path d="M55.7,5.2L55.7,5.2C55.6,5.1,55.7,5.1,55.7,5.2z"/>
					<path d="M41,7.9C41.1,7.9,41.3,8,41.4,8C41.3,8,41.2,7.9,41,7.9z"/>
					<path d="M41.1,8.1c-0.1,0-0.2,0-0.3,0C40.8,8.1,40.8,8.2,41.1,8.1z"/>
					<path d="M41.9,8c-0.2,0-0.3,0-0.5,0c0.1,0,0.1,0.1,0.1,0.1C41.6,8.1,41.7,8,41.9,8z"/>
					<path d="M152,7.1C152,7.1,152,7.2,152,7.1C152.4,7,152.3,7,152,7.1z"/>
					<path d="M79.1,3.2C79.1,3.2,79.1,3.3,79.1,3.2C79.1,3.3,79.1,3.3,79.1,3.2L79.1,3.2z"/>
					<path d="M80.3,2.9c-0.5,0.5-0.7,0.5-1.1,0.4l0.4,1.3L80.3,2.9z"/>
					<path d="M123,3.9l-0.8-0.4c1-0.6,1.6-0.3,0.9-0.9c-0.2,1.3-3,0-3.2,1.3l-0.5-0.3c0.1,0,0.2-0.1,0.3,0c-1-0.7-0.8,1-2.1,0.7
						c-0.4-0.1-0.7-0.3-0.4-0.5l-1,0.3c-0.3,0-0.2-0.3,0.1-0.2l-1.5,0l0,0c-0.2,0.2-0.7,0.5-1,0.6c-0.4-0.2,0.2-0.1,0.1-0.3
						l-0.9,0.3c-0.3-0.4,0.4-0.7,1-0.6c-0.7-1.4-0.7,0.3-2.4-0.5l0.8-0.1c-0.5-0.8-1.1-0.5-2-1c0.2,0.3,1.8,1.3,0.8,1.6
						c-0.3-0.1-0.6-0.2-1.1,0.1c0-0.5-0.5-0.4-1.1-0.4l0.1-0.6c-0.7,0.2-0.6,0.5-1,0.8c-0.7-0.1-0.9-0.6-1-1
						c-1.2-0.1,0.8,0.8-0.6,0.9c-1-0.3-1.6,0-2.8,0.3c-0.7-0.2,0.1-0.4-0.1-0.6l-0.6,0.5c-0.1,0-0.1-0.2-0.1-0.3
						c-0.5,0.2-0.1,0.6-0.9,0.8c-0.2,0.7-1.6-1.1-2.6-0.3c-0.2-0.2,0.1-0.4,0.1-0.6c-1.4,0.5-1.2,0.4-2.3,1l-0.9-0.4
						c0.7,0.5-0.2,1-1,1.5c0.2,0.2,0.4,0.4,0.6,0.5l-1.2,0.3c-0.1-0.1,0-0.3,0.2-0.6c-0.1,0.1-0.2,0.1-0.2,0.1
						c-0.4-0.2-0.2-0.6,0.1-1l0.4,0.4C95.7,4.8,96,4.4,95.9,4c-0.1,0.1-0.2,0.1-0.4,0.2c0.1-0.1,0.1-0.2,0.1-0.3
						c0-0.1-0.2,0.1-0.4,0.2l-0.3-0.7l-0.1,0.3l-1.6-0.5c-1.2,0.7-2.2,1.7-4,2c0.5-0.5,0.1-0.9,0.1-1.5c0.5,0.7,1.4-0.3,2.4-0.1
						c-0.5-0.1-0.4-0.4-0.3-0.5l-1.7,0.6c0-0.5-0.4-0.4-0.8-0.6c0.3,1-1.3,0.7-2,0.9c0-0.3,0.1-0.7,1-0.6c-0.9-0.8-1.2,1.2-2.1,0.5
						c0.2,0,0.3,0,0.4-0.1c-0.5,0.3-1.7,0-1.4-0.2l0.2,0c-1.4-0.1-4.2,0-4.4,0.8c0-0.1,0.2-1,0.3-1.2l-2.5,2.8
						c0.2-0.7-0.6-2.5,0.5-2.9c-0.3-0.1-0.7-0.2-1.4,0c0.2,0.1,0.5,1.1,0.2,1.1c-0.8-0.8-0.6-0.4-1.6-1.1c0.3,0.2,0,1.3-0.6,1.3
						c0.1-0.2,0-1.1,0.2-1.2l-1.3,1.1c0.3-0.2,0.1-1-0.2-1.3c0.1,0.2-1.1,0-1.5,0.1l0.6,0.3C72,3.3,72,5.1,70.5,5
						c0.2-0.2,0.4-1.4-0.3-1.6c-0.3,0.6-1.5,2.8-2.8,3.2l-0.2-0.3l-1,0.4c0.6-0.9,2.4-2.7,3.3-3.4c-0.6-0.3-0.2-0.4-1-0.4
						c-0.3-0.3,0.5-0.5,0.7-0.5l-1.9-0.2c0.1,0.7-1.5,0.7-1.4,1.2L68,2.8c0.1,0.7-1.2,1.9-2.6,1.8c-0.3-0.3,0.3-1.2,0.2-1.4
						c-0.2,0.2-1.3,0.4-1.4,0.3l0.6-0.4C64,2.8,63.6,4,62.6,3.3c-0.3,0-0.9-0.9-1-0.5c0.5,0.8,0.6,3.1,0.3,3.7
						c-0.1-0.1-1.7-0.7-2-1.1c-0.5-0.6,0.8-1.4,0.3-2c0,0.2-0.3,0.4-0.4,0.5c-0.3-0.2,0.1-0.6-0.6-0.5c-0.1,0.7-1.5-0.1-0.3,0.6
						c-0.7,0.2-0.7-0.1-1.6-0.1c0.3,0.4-0.7,1.5-1.4,1.7c0-0.2-0.1-0.4-0.2-0.5c-1.4-0.1-2.2-0.4-3.6-0.4c-0.1-0.2-0.8-0.4-0.5-0.7
						c-0.2,0.1-0.4,0.4-0.8,0.4c-0.8-0.6,0.9-0.1,0.3-0.8c-0.1,0.4-1.1,0.6-1.7,0.8c0.2,0.6,1.4,0.1,2-0.1c0,0.8-1,1.7-2.4,2.1
						c-1.1,0.2-0.5-0.5-0.7-0.4C46.3,6,46.6,7.6,44.9,7c-0.7-0.5,0-1.1-0.2-1.5c0.9-0.2,1.4,0.3,2,0.3l-0.8-0.2
						c0.3-0.2,0.9-0.3,1.2-0.2c-0.6-0.5-3.5-0.1-5.2-0.5c-0.3,0.2-0.8,0.4-0.5,0.6L42,5.4c0.5,0.4-1,0.6-0.3,0.8
						C41,6.6,40.2,7,39.2,6.8L39,6.2c0,0.2,0.6,0.4,0.9,0.2c-0.4,0.3-1.5-0.8-1.9,0l0.7,0.4c-0.7,0.3-1.5,1-2.4,0.8
						c0.4,0.6,0.2-0.1,0.8,0.6c-0.5-0.9,2.2,0,1.3-0.9c0.6,0.8,1.1,0.3,1.9,1c0-0.2-0.3-0.4,0.4-0.3c0-0.1,0.1-0.1,0.2-0.2
						c0,0,0,0,0,0l0,0c0,0,0,0,0,0c-0.2-0.1-0.3-0.2-0.4-0.3c0.3-0.5,1.5-0.5,1.9-0.7c0.4,0.1-0.2,0.2,0.1,0.4l0.6-0.4
						c0.1,0.4,1.1,0.7,0.1,1l0.9,0c0.5,0.2,1.3,0.3,1.7,0.2c0.4,0.1,1.1-0.5,0.7-0.2L48,7.6l0,0.1c1.4,0,2.9-0.8,4.5,0
						c0.5-0.1,1-0.3,1.7-0.1L54.3,8c0.6-0.1,1.8,0.4,2.1,0c0.7,1,2.9,0.2,4,0.4l0-0.5c0.7,0,1.4-0.1,2.3-0.3l-0.1-0.4
						c0.8-0.4,2,0.3,3.2,0.3c-0.1,0.2-0.4,0.1-0.6,0c1.5,1,3.1-0.7,4.5,0c0.3-0.2,0.6-0.1,0.8,0c0,0-0.1,0-0.1,0c0,0,0.1,0,0.1,0
						c0.1,0.1,0.3,0.2,0.5,0.2c-0.1-0.1-0.3-0.2-0.4-0.2c0.3,0,0.6-0.1,1-0.2l0.2,0.5c0,0,0.1,0,0.1,0c0.4,0.2,0.3-0.2,0.1-0.6
						c0.2-0.1,0.4-0.2,0.5-0.3c0.3,0.8,1-0.3,1.4,0.6C74.3,7,76,7.2,76.2,6.3c0,0.1,0.1,0.2-0.1,0.2c0.4,0.1,0.9,0.2,1.2,0L77.5,7
						l0.9-0.8c0.6,0.4,0.8,0.6,0.2,1.1c1.4-0.7,1.1-0.3,2.3-1l-0.1,0.4c0.4,0,1.1-0.5,1.3-0.2c0.9,0.8,4.6,0.1,6.9,0.9
						c-0.4-1.2,1.1,0.5,1.2-0.4c0.1,0.3,0.5,0.4,0.1,0.7c1.2-0.3,1.8,0.5,2.7-0.3c0.1,0.3-0.3,0.4-0.1,0.6c0.1-0.1,0.4-0.2,0.5-0.1
						c0.1,0.2-0.2,0.2-0.4,0.3c1.2,0,1.4-0.9,1.5-1.7C95.2,7,95.5,6.9,96,6.4C96.2,6.7,96.5,7,95.8,7c0.4,0,2.6,0.4,2.7-0.2
						c0.1,0.2,0.6,0.1,0.7,0c1,0.1,1.1,0.1,2,0.1l-0.3-0.1c0.4-0.8,0.8-0.2,1.6-0.2l0,0.1c1.7,0.6,0.8-0.2,2.5,0.4l-0.1-0.5
						c0.2-1,1.5,0.7,2.5,0.3L107,6.6c0.6-0.3,1.5,1.4,2,1.6c0.1,0.1-0.2,0.1-0.4,0.2c1.4,0.7,0.2-0.6,1.3-0.7
						c0.2,0.3-0.3,0.9,0.4,0.9c0.4,0.3,2.1-1,3.1-0.3c-0.2-0.3-0.4-0.5,0.1-0.7c0.8-0.1,2,1.1,2.8,0.3c0.1,0.1,0.1,0.1,0.1,0.2
						c0.6-0.2,1.9-0.3,2.3-0.7c0.5,1.7,3.7-0.6,3.6,0.9l1.8,0l-0.1,0.2c1.1,0.2,1.6-0.2,2-0.5c0.3,0.1,0.1,0.2,0,0.3
						c1.7,0.4,1.8,0.3,3.3-0.3l0.1,0.5c0.4-0.3,2.4,0.9,4.1,0.5c0,0.1-0.1,0.1-0.2,0.2c1.9-0.5,4.3,1.7,5.1-0.1l1.3-0.4
						c-1.6-0.3,0.3-0.8-0.3-1.1c0.6-0.1,1.6,0.7,0.8,0.7l-0.1-0.1c-0.4,0.9,1.9,0.5,1.8,1.1c3.1,0.2,6.1,0.9,9,1.3l-0.3-0.8l1,0.1
						c0.2,0.2,0.3,0.6-0.4,0.5c0.3,0.5,1.2-0.2,1.3-0.4c1.4,0.4-0.6,0.8-0.2,0.9l0.6,0l-0.1-0.1c0.5-0.3,0.6-0.6,1.4-0.4
						c0.5,0.2,0.2,0.5,0.5,0.5c0,0.1,0.1,0.1,0.3,0.1l1.3,0.2l-0.5-0.6c0.6-0.2,1.2,0.1,0.7-0.6c0.8,1.1,4.7,0.9,5.2,1.3
						c0.8-0.3,1.6-0.2,2.6-0.1c-0.2-0.1-0.3-0.8,0.5-0.6c-0.5,1.3,1.5,0.8,2,1.8c-0.5-0.7,2.4,0.2,1.6-0.9c0.7,0.2,0,0.5,0.5,0.9
						c1.7-0.3,3.6,0.8,5.7,0.9c0.1-0.2-0.2-0.5,0.2-0.7l1,1c0.4,0,0.5-0.9,1.2-0.2c-0.1-0.2-0.2-0.4,0.1-0.4c3.9,1.5,8.3,0.6,12,2.9
						c-0.5-0.4-0.1-0.4,0.3-0.3c-0.3-0.1,0.1-0.4,0.1-0.7l1.6,1c0.4-0.6,1.8,0.3,2.1-0.3l-0.6,0c0.9-0.6-0.7-1.8-0.4-2.7
						c-1,0.7-1.9-1.6-3.4-0.7c-0.3-0.2,0.3-0.3,0.2-0.5c-0.4,0.3-0.8,0.4-1.5,0l0.1-0.1c-2.1-0.3-3-0.8-5.3-1.5l0.1,0.5
						c-0.5-0.1-0.6-0.3-0.8-0.5c-0.7,0.6,1.4,0.3,0.8,1c-0.5-1.1-3.6-0.6-3.9-1.7c-0.8-0.1,0.1,0.6-0.6,0.4l-0.2-0.3l-0.3,0.3
						c-0.5-0.1-0.7-0.6-0.7-0.8c0.1,0,0.4,0,0.5,0c-0.6-0.5-1.9-0.2-2.1-0.3l0.7,0.3c-2.2,0-4.7-0.8-6.9-0.4l0.1,0.2
						c-1.6,0.2-1.2-0.4-3-0.4l0.1,0c-0.4,0.2-0.9,0.2-1.3,0.2c0.5-0.2-0.8-0.6-0.2-0.8c-1.8,0.2-0.9,0.2-2.1,0.9l-0.2-0.4
						c-0.4,0.3-0.5,0.5-1.4,0.5c0.7-0.2-0.5-0.6,0.4-1c-1.7-1-2.8,0.5-3.5-0.8c-0.9,0.9,1.5,0.7,1,0.9c0.4,0.4-0.8,0.7-1.3,0.5
						c-0.6-0.1-0.9-1.4-2.3-1.5c0.1,0,0.2-0.1,0.3,0c-0.5-0.3-1.1,0.2-1.7-0.2c-0.4,0.6-0.9-0.1-1.1,0.7l1.4,0
						c-0.8,0.1-1.6,1-2.8,0.4c0.1-0.1,0.5-0.3,0.8-0.4c-0.3-0.3-0.7,0.1-1.1-0.2c0.2-0.8,1.7,0,2.5-0.5c-0.4-0.4-1.6,0.4-1.1-0.4
						c-0.7,1-1.4-0.3-2.5,0.5L150,6c-0.2,0.1-0.5,0.2-0.8,0.2l0.6-0.6c-0.9,0.4-1.5-0.6-2.3-0.4c1.6,0.1,0.3,0.6,1,1
						c-2.1,0.5-1-1.3-3.3-1.3c0.3,0,1.1,0.4,0.6,0.6c-0.4-0.1-1-0.4-1.2-0.6c-1.5,0,0.2,0.5-0.5,0.7c-0.5-0.6-0.7,0.2-1.4,0.3l0-0.5
						c-1.7-0.4-0.5,1-2,0.5l0.7-0.6l-0.8,0.1l0.2-0.5c-0.9,0.3-1.2,0.2-2,0c0.2,0.4-0.2,0.9-0.9,0.8c-0.5-0.3,0.3-0.4-0.7-0.4
						c0.3-0.3,0.5-0.6,1-0.2c0.1-0.2,0.3-0.3,0.3-0.4c-0.5-0.4-1.4-0.2-1.8-0.2c0.1,0,0.3,0.1,0.4,0.1l-1.6,0.6
						c-0.2-0.2,0-0.3,0.2-0.5c-0.3,0-0.5,0.2-1,0.2c0.1-0.4,0.1-0.8,0.8-0.9l-1.5,0.3c-0.1-0.2-0.7-0.5-0.5-0.6
						c-0.8-0.3-2,0.6-3.1,0.3c-0.1,0.1-0.2,0.1-0.4,0.2c-1-0.1-1.9-0.7-3.1-0.2l-0.6-0.7c-0.9,0.1,0.9,0.9-0.7,1.1
						c-1.1,0.2-0.4-0.6-0.8-0.8c-0.6,0.3-1.6,1-2.6,0.4C122.5,3.8,122.7,3.9,123,3.9z M111.4,3.7c0.2-0.1,0.7-0.4,0.8-0.1
						C112,4.1,111.8,3.8,111.4,3.7z M93.8,4.4c0.2-0.2,0.4-0.1,0.7,0.1C94.3,4.5,94.1,4.5,93.8,4.4z M44.8,7.6
						C44.8,7.6,44.8,7.6,44.8,7.6C45.3,7.8,45.2,7.7,44.8,7.6z M43.8,7.4c-0.1,0.1-0.1,0.1-0.1,0.2c0.1-0.1,0.3-0.1,0.6-0.1
						C44.2,7.4,44.1,7.3,43.8,7.4z M154.9,10.7l-0.2-0.1C155.2,10.4,155.1,10.6,154.9,10.7z"/>
					<path d="M95.8,3.8c0.1,0.1,0.1,0.2,0.1,0.3C96,4,96,3.9,95.8,3.8z"/>
					<path d="M130.3,4L130.3,4C130.3,4,130.3,3.9,130.3,4L130.3,4z"/>
					<path d="M59.8,3.3c0.2,0.1,0.3,0.2,0.4,0.2C60.3,3.4,60.2,3.3,59.8,3.3z"/>
					<path d="M38.3,8.3L39,8.2c-0.3,0-0.4-0.1-0.6-0.1C38.4,8.2,38.5,8.3,38.3,8.3z"/>
					<path d="M32.5,5.5c-0.1,0.1-0.2,0-0.3,0.1l0,0.2C32.6,5.8,32.9,5.6,32.5,5.5z"/>
					<path d="M37.7,6.7c-0.1-0.4-0.5-0.3-0.9-0.2c0,0,0.1,0,0.1,0C36.7,7.1,37.2,6.9,37.7,6.7z"/>
					<path d="M36.6,6.6c-0.1,0-0.3,0-0.4,0C36.2,6.8,36.4,6.6,36.6,6.6z"/>
					<path d="M42.5,7.7c-0.2-0.1-0.1,0.5-0.3,0.4C42,8.6,43.7,7.4,42.5,7.7z"/>
					<polygon points="37.3,5.4 37.4,5.9 37.7,5.5 					"/>
					<path d="M41,5.7l-0.7-0.1c0,0.1-0.1,0.1-0.2,0.2C40.5,5.8,41,5.9,41,5.7z"/>
					<path d="M40,5.8c-0.2,0-0.5,0-0.6,0.1C39.5,5.8,39.8,5.8,40,5.8z"/>
					<polygon points="38.3,5.2 38.5,5.3 39,5.4 					"/>
					<path d="M48.9,5.7l0.8-0.1c0.1-0.2-0.1-0.3-0.4-0.2C49.1,5.5,48.8,5.6,48.9,5.7z"/>
					<path d="M46.5,4.4c0.2,0.1,0.2,0.2,0.4,0.4l0-0.6L46.5,4.4z"/>
					<path d="M48.9,4.2C48.9,4.1,50,3.7,49,3.8C48.9,3.9,48.1,4.1,48.9,4.2z"/>
					<polygon points="61.1,5 60.9,5 60.9,6 					"/>
					<path d="M71.9,2.5c-1-0.2-0.2,0.6-1.1,0.3c-0.2,0.2,0.7,0.2,0.5,0.5C71.9,3,72.2,3.2,71.9,2.5z"/>
					<path d="M71.3,3.3c-0.1,0-0.2,0.1-0.3,0.2C71.1,3.4,71.2,3.3,71.3,3.3z"/>
					<polygon points="192.1,16.5 192.7,16.8 192.3,16.4 					"/>
					<path d="M193.4,16l0,0.7l0.5-0.5C193.8,16.1,193.5,16.1,193.4,16z"/>
					<path d="M109.8,2.3l-0.1,0.2c0.1,0.2,0.2,0.2,0.5,0.2L109.8,2.3z"/>
					<polygon points="118.2,3.1 118,3.1 118.3,3.7 					"/>
					<path d="M125.3,2.7c-0.3,0-0.6,0.1-0.9,0C125,2.7,125.3,3.5,125.3,2.7z"/>
				</g>
			</g>
		</g>
	</g>
</g>
</svg>
